<?xml version="1.0" encoding="UTF-8" standalone="no"?>
<svg
   xmlns:dc="http://purl.org/dc/elements/1.1/"
   xmlns:cc="http://creativecommons.org/ns#"
   xmlns:rdf="http://www.w3.org/1999/02/22-rdf-syntax-ns#"
   xmlns:svg="http://www.w3.org/2000/svg"
   xmlns="http://www.w3.org/2000/svg"
   xmlns:xlink="http://www.w3.org/1999/xlink"
   xmlns:sodipodi="http://sodipodi.sourceforge.net/DTD/sodipodi-0.dtd"
   xmlns:inkscape="http://www.inkscape.org/namespaces/inkscape"
   width="377.953"
   height="572.999"
   viewBox="0 0 100 151.606"
   version="1.1"
   id="svg309"
   sodipodi:docname="Coat_of_arms_of_Tuban_Regency.svg"
   inkscape:version="1.0.1 (3bc2e813f5, 2020-09-07)">
  <metadata
     id="metadata313">
    <rdf:RDF>
      <cc:Work
         rdf:about="">
        <dc:format>image/svg+xml</dc:format>
        <dc:type
           rdf:resource="http://purl.org/dc/dcmitype/StillImage" />
      </cc:Work>
    </rdf:RDF>
  </metadata>
  <sodipodi:namedview
     pagecolor="#ffffff"
     bordercolor="#666666"
     borderopacity="1"
     objecttolerance="10"
     gridtolerance="10"
     guidetolerance="10"
     inkscape:pageopacity="0"
     inkscape:pageshadow="2"
     inkscape:window-width="1366"
     inkscape:window-height="705"
     id="namedview311"
     showgrid="false"
     showguides="true"
     inkscape:guide-bbox="true"
     inkscape:snap-bbox="true"
     inkscape:bbox-paths="true"
     inkscape:bbox-nodes="true"
     inkscape:snap-bbox-midpoints="true"
     inkscape:snap-bbox-edge-midpoints="true"
     inkscape:object-paths="true"
     inkscape:snap-intersection-paths="true"
     inkscape:snap-smooth-nodes="true"
     inkscape:snap-midpoints="true"
     inkscape:zoom="1.1205132"
     inkscape:cx="300.74064"
     inkscape:cy="253.52104"
     inkscape:window-x="-8"
     inkscape:window-y="-8"
     inkscape:window-maximized="1"
     inkscape:current-layer="svg309"
     inkscape:document-rotation="0">
    <sodipodi:guide
       position="55.632,116.17795"
       orientation="1,0"
       id="guide1430" />
  </sodipodi:namedview>
  <style
     id="style2"><![CDATA[.B{opacity:.995}.C{fill:#fff100}.D{stroke:#ffd600}.E{fill:#fed700}.F{fill:#167c3a}.G{fill:#0b3e1d}.H{opacity:.996}.I{stroke-width:.1}.J{fill:#fff}.K{stroke:#0b3e1d}.L{stroke-width:.081}.M{stroke-width:.165}.N{stroke-width:.07}.O{stroke-width:.402}.P{stroke-width:.078}.Q{stroke-width:.079}]]></style>
  <defs
     id="defs19">
    <filter
       id="A"
       x="0"
       width="1"
       y="0"
       height="1"
       color-interpolation-filters="sRGB">
      <feGaussianBlur
         stdDeviation="0"
         id="feGaussianBlur4" />
    </filter>
    <path
       id="B"
       d="M55.453 103.809c-.341 0-.724.022-.93.265-.26.307-.398-.184-.603-.033s.003.177-.039.304c-.057.17-.383-.151-.461.069-.096.27.266.242.264.409-.002.116-.296.03-.3.207-.003.137.121.269.316.313l-.015.234a1.77 1.77 0 0 0 3.131 1.125l1.701.821-.368-.803-1.025-.562c.064-.182.098-.378.098-.581a1.77 1.77 0 0 0-1.77-1.768z" />
    <path
       id="C"
       d="M57.072 105.576a1.62 1.62 0 0 1-1.618 1.618 1.62 1.62 0 0 1-1.618-1.618 1.62 1.62 0 0 1 1.618-1.618 1.62 1.62 0 0 1 1.618 1.618z" />
    <path
       id="D"
       d="M59.818 108.939c-3.863 15.575 7.575 16.923 10.891 13.43 6.751-9.415-4.68-13.753-10.891-13.43z" />
    <path
       id="E"
       d="M63.362 111.35c.437 2.602.662 3.217 1.001 4.421-.175.088-.344.148-.559.101-1.397-.288-1.488-.658-3.507-1.976 1.064 1.205 2.349 2.254 3.396 2.494.325.071.634-.027.92-.172l1.889 1.1.594 1.821c-.708.034-1.331-.128-1.916-.498-.611-.119-.522-.588-2.342-1.348 1.127 1.189 1.626 1.516 2.061 1.795.712.451 1.531.753 2.5.623l1.928.963 1.23 1.948.445-.282-1.203-1.906c.03-.123.073-.23.131-.375a1.71 1.71 0 0 0 .121-.748c-.402-.916-.109-1.914-1.687-3.754.547 1.807 1.082 2.7 1.158 3.783a1.06 1.06 0 0 1-.084.521c-.028.07-.054.155-.08.236l-1.662-.83-.703-2.154c.313-.675.273-1.44.037-2.226-.39-.494-.015-.846-1.408-2.589l.902 2.738a2.53 2.53 0 0 1-.029 1.664l-1.577-.914c-.619-.887-.523-2.263-1.555-4.435z" />
    <path
       id="F"
       d="M119.736 104.953l-.164.031c-1.16.225-2.036.836-2.43 1.672-.384.815-.275 1.834.418 2.854-.576.929-.699 1.878-.389 2.613.318.755 1.079 1.265 2.137 1.287.663.014 1.445-.48 1.836-1.246.377-.739.312-1.748-.582-2.756.019-.023.032-.034.059-.07.056-.076.125-.177.197-.301.145-.247.3-.58.379-.961.158-.763-.027-1.728-1.219-2.453a.55.55 0 0 1-.174-.205c-.049-.095-.078-.206-.074-.297z" />
    <path
       id="G"
       d="M117.702 109.509c-1.443-2.034-.362-3.955 1.896-4.394-3.21 2.614-.857 3.149-.857 4.276 0 .97-1.707 1.504.571 3.887-2.035-.043-2.806-1.92-1.609-3.769z" />
    <path
       id="H"
       d="M129.631 83.941c1.773-.906 1.754-2.737.355-3.959 1.232 3.187-.602 2.636-1.03 3.458-.368.706.612 1.778-1.873 2.604 1.427.782 2.675-.277 2.548-2.103z" />
    <path
       id="I"
       d="M121.557 68.517l-.102.088c-.719.628-1.094 1.423-1.049 2.189.043.747.506 1.446 1.374 1.912-.046.907.229 1.647.724 2.059.507.423 1.228.49 1.97.084.465-.255.82-.927.799-1.642-.02-.689-.448-1.398-1.451-1.775l.014-.075c.01-.077.019-.179.022-.298a2.82 2.82 0 0 0-.102-.852c-.18-.619-.675-1.248-1.777-1.3-.05-.002-.128-.03-.198-.08a.51.51 0 0 1-.164-.187z" />
    <path
       id="J"
       d="M121.878 72.65c-1.773-.906-1.754-2.737-.355-3.959-1.232 3.187.602 2.636 1.031 3.458.368.706-.612 1.778 1.873 2.604-1.427.782-2.675-.277-2.548-2.103z" />
    <path
       id="K"
       d="M130.636 71.64l.102.088c.719.628 1.094 1.423 1.049 2.189-.043.747-.506 1.446-1.374 1.912.046.907-.229 1.647-.724 2.059-.507.423-1.228.49-1.97.084-.465-.255-.82-.927-.799-1.642.02-.689.448-1.398 1.451-1.775l-.014-.075c-.01-.077-.019-.179-.023-.298a2.82 2.82 0 0 1 .102-.852c.18-.619.675-1.248 1.777-1.3.05-.002.128-.03.198-.08a.51.51 0 0 0 .164-.187z" />
    <path
       id="L"
       d="M122.106 38.731l-.09.075c-.637.531-.969 1.203-.929 1.851.038.632.448 1.222 1.217 1.616-.041.767.203 1.393.641 1.741.449.357 1.088.414 1.745.071.412-.215.726-.784.708-1.388-.017-.582-.397-1.182-1.285-1.501.004-.021.008-.032.012-.063.009-.065.017-.151.02-.252.006-.201-.011-.458-.091-.72-.16-.523-.598-1.055-1.574-1.099-.044-.002-.113-.026-.176-.068s-.117-.101-.145-.158z" />
    <path
       id="M"
       d="M122.39 42.224c-1.571-.765-1.554-2.314-.315-3.347-1.091 2.694.533 2.229.913 2.923.326.597-.542 1.503 1.659 2.201-1.264.661-2.37-.234-2.257-1.777z" />
  </defs>
  <g
     id="g1602">
    <g
       id="g1562">
      <path
         d="M 23.817,0 0.006,7.33 0.001,96.282 c 0,25.739 19.45,46.933 44.454,49.693 h -0.029 c 4.327,0.835 4.875,3.717 5.575,5.631 0.7,-1.914 1.248,-4.796 5.575,-5.631 h -0.029 c 25.004,-2.76 44.454,-23.953 44.454,-49.693 L 99.996,95.581 100.001,7.33 76.179,0 Z"
         class="H"
         id="path21" />
      <g
         id="g1468">
        <g
           stroke="#800000"
           stroke-width="0.075"
           id="g29"
           transform="translate(-42.579,-6.277)"
           style="stroke:none">
          <path
             d="m 66.626,7.814 -22.505,6.928 -0.005,87.817 c 0,24.965 18.848,45.49 43.086,48.165 0.151,0.017 0.298,0.056 0.438,0.116 2.272,0.521 3.84,1.645 4.76,2.925 0.07,0.098 0.116,0.195 0.18,0.294 0.064,-0.098 0.109,-0.196 0.18,-0.294 0.92,-1.28 2.488,-2.404 4.76,-2.925 0.139,-0.06 0.287,-0.099 0.438,-0.116 24.237,-2.675 43.085,-23.199 43.086,-48.163 l -0.005,-0.691 0.005,-87.128 -22.516,-6.928 z"
             class="H J"
             id="path23"
             style="stroke:none" />
          <path
             d="m 66.918,9.752 -20.859,6.421 -0.005,86.386 c 0,25.736 20.789,46.525 46.525,46.525 25.736,0 46.524,-20.787 46.525,-46.522 l -0.005,-0.678 v -0.026 l 0.005,-85.685 -20.87,-6.422 z"
             class="C H"
             id="path25"
             style="stroke:none" />
          <path
             d="m 66.918,9.752 -16.45,5.064 -0.004,87.744 c 0,23.362 18.754,42.115 42.115,42.115 23.361,0 42.111,-18.75 42.115,-42.108 l -0.005,-0.649 h 0.002 l -0.002,-0.06 0.005,-87.042 -16.459,-5.065 z"
             fill="none"
             class="H"
             id="path27"
             style="stroke:none" />
        </g>
        <path
           d="m 7.885,96.282 c 0,23.362 18.754,42.115 42.115,42.115 23.361,0 42.111,-18.75 42.115,-42.108 z"
           fill="#040db2"
           class="B"
           id="path31"
           sodipodi:nodetypes="cscc" />
        <g
           id="g1442">
          <path
             d="M 7.885,96.282 7.889,8.538 24.339,3.474 H 50 v 92.457 z"
             fill="#ed1b24"
             filter="url(#A)"
             id="path33"
             style="stroke:none" />
          <path
             d="m 50.464,102.559 0.004,-87.744 16.45,-5.064 h 25.661 v 92.457 z"
             transform="matrix(-1,0,0,1,142.57911,-6.277)"
             filter="url(#A)"
             id="path35" />
          <path
             d="M 50,65.482 7.885,89.294 v 6.988 h 84.231 v -6.988 z"
             fill="#01a54f"
             id="path37" />
          <path
             d="m 24.339,3.475 c 3.619,3.13 11.701,10.98 13.459,38.951 V 95.932 H 50 62.202 V 42.425 C 63.961,14.455 72.043,6.605 75.661,3.474 H 50 Z"
             fill="#00adef"
             class="H"
             id="path39"
             style="stroke:none" />
        </g>
      </g>
    </g>
    <g
       fill="#ed1b24"
       id="g305"
       transform="translate(-42.579,-6.277)">
      <path
         d="m 83.303,144.753 -0.478,2.196 -0.001,0.003 c 2.381,0.518 4.831,0.853 7.337,0.983 l 0.119,-2.251 a 43.52,43.52 0 0 1 -6.978,-0.932 z"
         class="H"
         id="path297" />
      <path
         d="m 72.22,140.689 -1.048,1.982 a 45.11,45.11 0 0 0 6.787,2.937 l 0.008,-0.003 0.716,-2.126 a 42.89,42.89 0 0 1 -6.463,-2.791 z m -9.3,-6.679 -1.525,1.637 a 45.48,45.48 0 0 0 5.774,4.619 l 1.244,-1.862 c -1.952,-1.315 -3.787,-2.786 -5.493,-4.394 z m -7.336,-9.088 -1.909,1.174 c 1.279,2.115 2.728,4.115 4.324,5.985 l 1.694,-1.463 a 43.08,43.08 0 0 1 -4.109,-5.695 z"
         id="path299" />
      <path
         d="m 101.856,144.753 0.478,2.196 v 0.003 c -2.381,0.518 -4.831,0.853 -7.337,0.983 l -0.119,-2.251 c 2.384,-0.124 4.714,-0.441 6.978,-0.932 z"
         class="H"
         id="path301" />
      <path
         d="m 112.938,140.689 1.048,1.982 a 45.11,45.11 0 0 1 -6.787,2.937 l -0.008,-0.003 -0.716,-2.126 a 42.89,42.89 0 0 0 6.463,-2.791 z m 9.3,-6.679 1.525,1.637 a 45.48,45.48 0 0 1 -5.774,4.619 l -1.244,-1.862 c 1.952,-1.315 3.787,-2.786 5.493,-4.394 z m 7.336,-9.088 1.909,1.174 c -1.279,2.115 -2.728,4.115 -4.324,5.985 l -1.694,-1.463 a 43.08,43.08 0 0 0 4.109,-5.695 z"
         id="path303" />
    </g>
  </g>
  <g
     id="g1446">
    <path
       d="m 50,9.486 -2.225,5.046 -5.486,0.556 4.111,3.675 -1.166,5.39 4.766,-2.775 4.766,2.775 -1.166,-5.39 4.111,-3.675 -5.486,-0.557 z"
       class="C H"
       id="path53" />
    <path
       d="m 50,9.486 -2.225,5.046 2.225,3.062 -7.711,-2.506 4.111,3.675 3.599,-1.169 -4.766,6.559 4.766,-2.775 v -3.785 l 4.766,6.559 -1.166,-5.39 L 50,17.593 57.711,15.087 52.225,14.53 50.001,17.592 Z"
       fill="#f7ea00"
       class="H"
       id="path55" />
  </g>
  <g
     id="g1606">
    <path
       d="m 44.345,101.287 c -1.728,0 -2.799,0.306 -3.668,0.608 -0.869,0.302 -1.506,0.582 -2.539,0.619 -1.081,0.039 -1.94,-0.345 -2.924,-0.676 -0.984,-0.331 -2.108,-0.583 -3.511,-0.121 -0.109,0.036 -0.199,0.114 -0.251,0.216 -0.052,0.102 -0.06,0.221 -0.024,0.33 0.036,0.109 0.114,0.199 0.216,0.251 0.102,0.052 0.221,0.06 0.33,0.024 1.194,-0.394 2.035,-0.194 2.965,0.119 0.93,0.313 1.931,0.766 3.231,0.719 1.179,-0.043 1.958,-0.376 2.793,-0.666 0.835,-0.29 1.753,-0.558 3.383,-0.558 1.428,0 2.136,0.334 2.87,0.693 0.734,0.359 1.51,0.755 2.777,0.715 1.29,0.047 2.077,-0.356 2.81,-0.715 0.733,-0.359 1.442,-0.693 2.869,-0.693 1.63,0 2.548,0.268 3.383,0.558 0.835,0.29 1.614,0.624 2.793,0.666 1.299,0.047 2.301,-0.406 3.23,-0.719 0.929,-0.313 1.771,-0.512 2.965,-0.119 0.109,0.036 0.228,0.028 0.331,-0.024 0.103,-0.052 0.181,-0.142 0.216,-0.251 0.035,-0.109 0.027,-0.228 -0.024,-0.33 -0.051,-0.102 -0.142,-0.18 -0.251,-0.216 -1.403,-0.463 -2.528,-0.21 -3.512,0.121 -0.984,0.331 -1.843,0.715 -2.924,0.676 -1.033,-0.037 -1.67,-0.317 -2.539,-0.619 -0.869,-0.302 -1.939,-0.608 -3.668,-0.608 l -0.027,10e-4 c -1.554,0.005 -2.478,0.416 -3.223,0.78 -0.745,0.364 -1.29,0.666 -2.389,0.627 h -0.048 c -1.099,0.04 -1.64,-0.26 -2.388,-0.627 -0.748,-0.367 -1.669,-0.775 -3.223,-0.78 l -0.027,-10e-4 z"
       class="J"
       id="path57" />
    <path
       d="m 45.103,111.049 c -1.134,0 -2.152,0.323 -2.996,0.629 -0.844,0.306 -1.547,0.574 -1.883,0.574 -0.115,0 -0.225,0.046 -0.306,0.127 -0.081,0.081 -0.126,0.192 -0.126,0.307 10e-4,0.238 0.194,0.431 0.432,0.431 0.678,0 1.362,-0.331 2.178,-0.627 0.816,-0.296 1.732,-0.576 2.701,-0.576 1.143,0 1.841,0.221 2.531,0.461 0.683,0.237 1.374,0.503 2.337,0.508 l 0.028,0.001 0.028,-0.001 c 0.963,-0.005 1.654,-0.271 2.337,-0.508 0.69,-0.239 1.39,-0.461 2.533,-0.461 0.969,0 1.886,0.281 2.701,0.576 0.815,0.295 1.5,0.627 2.178,0.627 0.238,0 0.431,-0.193 0.432,-0.431 0,-0.115 -0.045,-0.225 -0.126,-0.307 a 0.43,0.43 0 0 0 -0.306,-0.127 c -0.335,0 -1.038,-0.268 -1.883,-0.574 -0.845,-0.306 -1.862,-0.629 -2.996,-0.629 -1.26,0 -2.108,0.264 -2.816,0.51 -0.708,0.246 -1.259,0.461 -2.082,0.461 -0.823,0 -1.372,-0.215 -2.08,-0.461 -0.708,-0.246 -1.557,-0.51 -2.816,-0.51 z m -8.386,-3.138 c -0.238,0 -0.431,0.193 -0.432,0.431 -10e-4,0.238 0.193,0.434 0.432,0.434 1.445,-0.348 2.016,-0.233 2.86,0.073 0.844,0.306 1.862,0.629 2.996,0.629 1.26,0 2.108,-0.264 2.816,-0.51 0.708,-0.246 1.257,-0.461 2.08,-0.461 1.143,0 1.841,0.221 2.531,0.461 0.683,0.237 1.374,0.503 2.337,0.508 l 0.028,0.001 0.028,-0.001 c 0.963,-0.005 1.654,-0.271 2.337,-0.508 0.69,-0.239 1.39,-0.461 2.533,-0.461 0.969,0 1.886,0.281 2.701,0.576 0.815,0.295 1.5,0.627 2.178,0.627 0.238,0 0.431,-0.193 0.432,-0.431 0.001,-0.238 -0.193,-0.434 -0.432,-0.434 -0.335,0 -1.038,-0.268 -1.883,-0.574 -0.845,-0.306 -1.862,-0.629 -2.996,-0.629 -1.26,0 -2.108,0.264 -2.816,0.51 -0.708,0.246 -1.259,0.461 -2.082,0.461 -0.823,0 -1.372,-0.215 -2.08,-0.461 -0.708,-0.246 -1.557,-0.51 -2.816,-0.51 v 0.001 l -0.028,0.001 c -0.963,0.005 -1.654,0.271 -2.337,0.508 -0.69,0.239 -1.388,0.461 -2.531,0.461 -0.969,0 -1.886,-0.281 -2.701,-0.576 -0.815,-0.295 -2.367,-0.364 -3.155,-0.126 z"
       class="J"
       id="path287" />
  </g>
  <g
     id="g1183">
    <g
       id="g1456">
      <g
         id="g1436">
        <path
           d="m 37.848,28.97 -4.63,6.662 h 4.536 v 7.56 h -5.953 v 3.284 c 0.759,0.02 1.48,0.341 2.003,0.893 0.523,0.552 0.805,1.288 0.785,2.047 v 4.171 H 28.4 v 3.874 h 4.63 v 28.582 h -7.923 v 5.689 h -4.741 v 4.552 H 44.369 V 91.732 86.043 53.587 43.193 35.633 28.971 Z"
           opacity="0.991"
           class="J"
           id="path41"
           sodipodi:nodetypes="ccccccscccccccccccccccccc" />
        <path
           d="m 62.327852,28.97 4.63,6.662 h -4.536 v 7.56 h 5.953 v 3.284 c -0.759,0.02 -1.48,0.341 -2.003,0.893 -0.523,0.552 -0.805,1.288 -0.785,2.047 v 4.171 h 6.189 v 3.874 h -4.63 v 28.582 h 7.923 v 5.689 h 4.741 v 4.552 h -24.003 V 91.732 86.043 53.587 43.193 35.633 28.971 Z"
           opacity="0.991"
           class="J"
           id="path1432"
           sodipodi:nodetypes="ccccccscccccccccccccccccc" />
      </g>
      <path
         d="m 36.415,82.616 v 6.833 h -5.546 v 6.833 H 50 69.13 V 89.449 H 63.585 V 82.616 H 50 Z"
         class="B"
         id="path43" />
      <g
         stroke="#696969"
         id="g49"
         transform="translate(-42.579,-6.277)">
        <path
           d="m 92.369,43.1 c -0.948,0.53 -2.184,0.545 -3.192,0.752 -0.278,0.058 -0.48,0.104 -0.631,0.193 -0.122,0.072 -0.182,0.096 -0.236,0.1 -0.054,0.004 -0.134,-0.012 -0.285,-0.067 -0.271,-0.098 -0.434,-0.163 -0.623,-0.135 -0.095,0.014 -0.204,0.084 -0.252,0.172 -0.048,0.088 -0.053,0.169 -0.053,0.252 a 1.14,1.14 0 0 1 -0.055,0.219 c -0.037,0.109 -0.092,0.242 -0.155,0.375 -0.126,0.267 -0.293,0.546 -0.398,0.666 -0.056,0.064 -0.178,0.118 -0.349,0.121 -0.171,0.003 -0.38,-0.042 -0.574,-0.143 -0.101,-0.052 -0.178,-0.092 -0.273,-0.113 -0.048,-0.011 -0.106,-0.021 -0.178,0.004 a 0.3,0.3 0 0 0 -0.162,0.158 c -0.048,0.123 -0.025,0.205 -0.004,0.317 a 5.53,5.53 0 0 0 0.105,0.422 c 0.082,0.295 0.299,0.668 0.523,0.924 0.176,0.201 0.241,0.303 0.242,0.309 10e-4,0.006 0.004,-0.005 -0.008,0.025 -0.012,0.03 -0.041,0.087 -0.088,0.168 -0.08,0.14 -0.136,0.266 -0.152,0.404 -0.016,0.138 0.012,0.274 0.063,0.408 0.011,0.029 0.045,0.207 0.06,0.41 0.015,0.203 -0.115,1.003 -0.122,1.233 0.67,1.971 0.162,3.308 0.519,4.437 0.285,0.535 0.666,1.003 1.002,1.385 0.031,0.012 0.054,0.016 0.072,0.018 0.297,-0.032 0.53,-0.202 0.805,-0.318 v 0.002 c 0.012,0.007 0.044,0.031 0.09,0.072 0.107,0.097 0.204,0.176 0.334,0.215 0.13,0.039 0.295,0.002 0.4,-0.088 0.212,-0.18 0.324,-0.477 0.517,-0.987 0.235,-0.618 0.53,-1.137 0.846,-1.508 0.293,-0.343 0.577,-0.812 0.691,-1.156 l 0.016,0.416 c -0.001,1.696 -0.652,3.041 -2.629,5.346 -0.488,0.569 -1.003,1.231 -1.186,1.543 -0.138,0.236 -0.205,0.323 -0.252,0.35 -0.047,0.027 -0.155,0.041 -0.428,0.041 -0.606,0 -1.843,-0.386 -3.291,-1.076 -0.557,-0.266 -0.957,-0.421 -1.289,-0.463 -0.332,-0.042 -0.621,0.064 -0.803,0.283 -0.715,0.727 0.117,2.225 0.355,2.491 -0.027,0.13 0.067,0.58 -0.099,0.991 -0.771,1.783 -1.177,2.327 -1.653,3.178 -0.374,0.132 -0.785,0.38 -0.8,0.789 -0.035,0.935 0.247,2.34 0.533,3.942 0.503,1.25 1.633,1.678 2.053,1.845 0.518,-0.341 0.416,-0.304 0.619,-0.591 0.214,-0.489 0.21,-1.273 -0.097,-1.687 -0.175,-0.228 -0.442,-0.367 -0.777,-0.451 -0.189,-0.048 -0.298,-0.095 -0.332,-0.119 -0.034,-0.024 -0.019,0.005 -0.019,-0.043 -0.087,-0.583 -0.323,-1.082 -0.553,-1.654 L 80.423,67.2 a 5.31,5.31 0 0 0 0.484,-0.805 c 0.183,-0.393 0.588,-1.067 0.965,-1.632 l 0.514,-0.725 c 0.018,0.577 0.123,0.824 0.137,1.076 0.021,0.384 -0.049,0.633 -0.01,0.948 -0.018,0.144 0.228,0.415 0.325,0.541 1.147,0.963 2.007,1.803 3.026,2.277 0.216,0.199 1.966,-0.077 2.535,-0.269 0.075,-0.33 0.018,-0.557 -0.013,-0.746 l -1.132,-1.213 c -0.25,-0.061 -0.48,0.034 -0.781,0.18 -0.208,0.101 -0.341,0.15 -0.405,0.16 l -1.584,-0.819 c -0.065,-0.059 -0.058,-0.052 -0.058,-0.156 0,-0.366 -0.155,-0.921 -0.35,-1.471 l -0.313,-0.767 c 1.406,0.96 2.196,1.717 4.725,2.824 0.093,0.148 0.703,0.823 0.91,1.055 0.414,0.463 1.025,1.073 1.654,1.625 l 4.032,2.865 -0.002,0.001 c 0.217,0.373 -1.064,1.851 1.735,5.969 0.173,0.254 0.399,0.558 -0.059,1.04 l -3.839,3.543 c -0.224,0.181 -0.469,0.238 -0.614,0.467 -0.157,0.246 -0.172,0.504 -0.224,0.779 -0.25,0.172 -1.896,1.584 -1.169,4.678 0.097,0.16 0.401,0.113 0.854,-0.083 l 0.652,-0.332 c 0.366,-0.187 0.773,-0.475 1.107,-0.76 a 4.4,4.4 0 0 0 0.431,-0.416 c 0.116,-0.131 0.205,-0.237 0.242,-0.387 0.068,-0.415 -0.063,-0.72 -0.138,-1.101 0.146,-0.184 0.316,-0.409 0.415,-0.64 0.635,0.023 0.821,-0.465 1.07,-0.838 0.505,-0.761 2.817,-3.083 3.603,-3.617 0.398,-0.27 0.835,-0.626 1.034,-0.861 l 0.379,-0.449 0.642,1.334 c 0.162,0.683 -0.164,1.435 -0.384,1.829 -0.964,1.722 -1.588,2.442 -2.264,3.231 -0.186,0.217 -0.327,0.326 -0.538,0.595 -0.211,0.269 -0.185,0.509 -0.259,0.76 -0.791,0.586 -1.229,1.3 -1.533,2.063 l 0.675,-0.03 3.024,-0.07 -0.014,-0.213 -0.033,-0.596 c -0.017,-0.291 -0.005,-0.424 0.002,-0.44 0.201,-0.105 0.469,-0.252 0.652,-0.4 0.107,-0.125 0.169,-0.275 0.221,-0.459 0.085,-0.71 0.497,-1.211 0.936,-1.871 l 1.547,-2.213 c 0.408,-0.55 0.669,-0.973 0.807,-1.371 0.138,-0.398 0.142,-0.769 0.045,-1.156 -0.164,-0.652 -0.134,-1.511 0.045,-1.957 0.053,-0.133 0.366,-0.534 0.685,-0.846 a 4.78,4.78 0 0 1 0.457,-0.396 c 0.015,-0.011 0.024,-0.015 0.039,-0.025 -0.046,0.195 -0.133,0.493 -0.324,1.109 -0.28,0.901 -0.372,1.85 -0.299,2.639 0.073,0.789 0.293,1.447 0.783,1.709 0.085,0.046 0.062,0.007 0.076,0.09 0.014,0.083 0.011,0.294 -0.018,0.668 -0.054,0.709 -0.011,1.009 0.211,1.525 0.155,0.359 0.418,0.721 0.697,1.006 0.14,0.143 0.283,0.266 0.424,0.358 0.141,0.092 0.276,0.16 0.438,0.16 -0.001,0 0.131,0.064 0.228,0.258 0.446,0.883 1.123,1.342 2.01,1.342 h 1.006 l -0.961,-1.037 c -0.655,-0.708 -1.277,-1.881 -1.523,-2.877 -0.237,-0.958 -0.178,-3.159 0.17,-5.064 0.289,-1.583 0.375,-2.74 0.195,-3.723 -0.18,-0.983 -0.632,-1.779 -1.371,-2.608 l -0.428,-0.529 -0.121,-0.188 c -0.026,-0.046 -0.024,-0.098 -0.024,-0.021 0,-0.164 -0.06,-0.302 -0.144,-0.512 l -0.332,-0.725 c -0.263,-0.528 -0.589,-1.103 -0.859,-1.482 a 8.64,8.64 0 0 0 -2.31,-2.209 l -1.592,-1.015 C 99.96,64.966 99.01,63.98 98.524,62.989 c -0.434,-0.885 -0.84,-2.383 -0.84,-2.996 0,-0.358 0.06,-0.827 0.141,-1.195 a 3.2,3.2 0 0 1 0.117,-0.414 c 0.052,0.039 0.262,0.679 0.316,0.669 -0.028,-0.539 -0.023,-0.794 0.294,-1.181 0.081,-0.099 0.212,-0.146 0.171,0.326 -0.078,0.892 -0.043,1.629 0.402,2.475 -0.256,-1.928 1.5,-3.343 1.086,-5.068 a 3.11,3.11 0 0 0 -0.317,-0.714 c -0.302,-0.54 -0.931,-1.642 -0.476,-1.857 0.361,-0.171 0.518,1.878 1.211,2.132 -0.122,-0.245 -0.331,-0.527 -0.077,-1.431 0.254,-0.904 0.288,-1.523 0.063,-1.955 -0.067,-0.127 -0.184,-0.264 -0.361,-0.471 l -0.631,-0.698 c -0.453,-0.477 -0.715,-0.8 -0.819,-0.992 -0.166,-0.307 0.223,-0.432 0.421,-0.194 0.331,0.398 0.594,0.627 0.861,1.524 0.246,-0.738 0.376,-1.075 0.386,-1.412 0.008,-0.579 -0.121,-1.051 -0.471,-1.422 -0.35,-0.371 -0.91,-0.495 -1.708,-0.745 -0.876,-0.275 -1.621,-1.184 -1.598,-1.17 0.985,0.629 1.353,0.749 2.23,0.631 -0.935,-0.447 -1.248,-0.803 -1.402,-1.062 -0.222,-0.379 -0.474,-0.98 -0.85,-1.05 -0.504,-0.094 -2.278,0.068 -3.154,0.16 0.241,-0.604 0.522,-0.592 0.972,-0.756 -1.135,-1.154 -2.895,0.174 -3.835,0.469 0.573,-0.435 1.452,-0.81 1.716,-1.487 z"
           stroke-width="0.01"
           class="J"
           id="path45" />
        <path
           d="m 92.368,43.1 c -1.006,0.551 -3.124,0.347 -4.059,1.046 -0.42,-0.227 -0.783,-0.22 -1.201,-0.237 0.104,0.479 -0.342,1.313 -0.62,1.719 -0.553,0.311 -1.166,-0.091 -1.487,-0.473 -0.273,0.963 0.152,1.945 0.818,2.472 10e-4,0.003 0.004,-0.005 -0.008,0.025 -0.103,0.218 -0.281,0.441 -0.403,0.622 0.22,0.343 0.174,0.224 0.225,0.358 0.011,0.029 0.045,0.207 0.06,0.41 0.015,0.203 -0.188,1.012 -0.122,1.233 0.6,1.994 0.079,3.375 0.435,4.504 0.285,0.535 0.749,0.936 1.086,1.318 0.031,0.012 0.054,0.016 0.072,0.018 0.297,-0.032 0.53,-0.202 0.805,-0.318 v 0.002 c 0.013,0.007 0.044,0.031 0.09,0.072 0.107,0.097 0.204,0.176 0.334,0.215 0.13,0.039 0.295,0.002 0.4,-0.088 0.212,-0.18 0.324,-0.477 0.517,-0.987 0.235,-0.618 0.53,-1.137 0.846,-1.508 0.293,-0.343 0.577,-0.812 0.691,-1.156 l 0.016,0.416 c -0.001,1.696 -0.652,3.041 -2.629,5.346 -0.488,0.569 -1.003,1.231 -1.186,1.543 -0.138,0.236 -0.205,0.323 -0.252,0.35 -0.047,0.027 -0.155,0.041 -0.428,0.041 -0.606,0 -1.843,-0.386 -3.291,-1.076 -0.557,-0.266 -0.957,-0.421 -1.289,-0.463 -0.332,-0.042 -0.621,0.064 -0.803,0.283 -0.099,0.119 -0.096,0.228 -0.098,0.351 -0.002,0.123 0.016,0.264 0.043,0.412 0.054,0.296 0.153,0.623 0.291,0.887 l 0.098,0.176 c 0.015,0.024 0.029,0.048 0.053,0.074 0.024,0.026 0.058,0.064 0.137,0.08 0.079,0.016 0.172,-0.029 0.209,-0.067 0.037,-0.038 0.049,-0.066 0.06,-0.092 0.023,-0.051 0.037,-0.097 0.057,-0.158 0.017,-0.053 0.153,-0.232 0.316,-0.359 0.123,-0.096 0.224,-0.129 0.301,-0.157 -0.014,0.021 -0.007,0.025 -0.033,0.047 -0.329,0.273 -0.528,0.755 -0.678,1.463 -0.027,0.13 -0.15,0.48 -0.316,0.89 l -0.596,1.354 -0.568,1.254 c -0.164,0.365 -0.13,0.567 -0.231,0.812 -0.374,0.132 -0.783,0.424 -0.875,0.823 0.053,1.054 -0.059,2.52 0.684,3.361 0.111,0.067 0.236,0.05 0.317,0.029 0.274,0.916 1.035,1.238 1.837,1.462 0.214,-0.489 0.21,-1.273 -0.097,-1.687 -0.175,-0.228 -0.442,-0.367 -0.777,-0.451 -0.189,-0.048 -0.298,-0.095 -0.332,-0.119 -0.034,-0.024 -0.019,0.005 -0.019,-0.043 -0.087,-0.583 -0.323,-1.082 -0.553,-1.654 l 0.207,-0.277 a 5.31,5.31 0 0 0 0.484,-0.805 C 81.089,66 81.494,65.326 81.871,64.761 l 0.514,-0.725 0.158,-0.189 c 0.005,0.022 0.005,0.045 0.012,0.07 l 0.066,0.233 0.215,0.594 0.213,0.611 c 0.003,0.033 0.003,0.028 -0.004,0.041 a 0.69,0.69 0 0 1 -0.08,0.1 c -0.079,0.087 -0.159,0.186 -0.178,0.33 -0.019,0.144 0.044,0.282 0.141,0.408 0.194,0.252 0.564,0.555 1.258,1.119 l 0.966,0.779 c 0.465,0.252 0.569,0.186 0.668,-0.09 0.229,0.484 0.499,0.647 1.051,0.633 a 1.65,1.65 0 0 0 0.858,-0.25 c 0.279,-0.17 0.606,-0.313 0.654,-0.562 L 87.252,66.65 c -0.25,-0.061 -0.48,0.034 -0.781,0.18 -0.208,0.101 -0.341,0.15 -0.405,0.16 l -1.584,-0.819 c -0.065,-0.059 -0.058,-0.052 -0.058,-0.156 0,-0.366 -0.155,-0.921 -0.35,-1.471 l -0.313,-0.767 c -0.132,-0.311 -0.41,-0.533 -0.75,-0.854 0.002,-0.07 -0.014,-0.151 0.132,-0.314 1.901,1.816 4.761,4.044 7.521,3.774 2.524,-0.247 3.908,-1.18 4.261,-3.633 0.377,2.93 -3.266,4.576 -6.44,3.85 0.093,0.148 0.703,0.823 0.91,1.055 0.414,0.463 1.025,1.073 1.654,1.625 1.415,1.115 2.857,2.183 4.397,3.086 -0.374,2.548 0.532,3.826 1.453,4.985 0.348,0.361 0.574,0.738 0.547,1.133 -0.042,0.336 -0.082,0.503 -0.205,0.682 l -3.029,2.867 -1.107,1.157 c -0.186,0.192 -0.27,0.168 -0.411,0.373 -0.033,0.12 -0.111,0.304 -0.18,0.449 -0.056,0.09 -0.137,0.204 -0.225,0.314 -0.839,1.379 -0.931,2.687 -0.525,4.215 l 0.652,-0.332 c 0.366,-0.187 0.773,-0.475 1.107,-0.76 a 4.4,4.4 0 0 0 0.431,-0.416 c 0.116,-0.131 0.205,-0.237 0.242,-0.387 0.068,-0.415 -0.063,-0.72 -0.138,-1.101 0.146,-0.184 0.316,-0.409 0.415,-0.64 0.634,0.023 0.82,-0.465 1.069,-0.839 0.505,-0.761 2.817,-3.083 3.603,-3.617 0.398,-0.27 0.835,-0.626 1.034,-0.861 l 0.379,-0.449 c -1.192,-2.58 -2.954,-7.2 0.162,-8.721 -2.775,2.088 -1.093,6.277 -0.061,8.318 0.61,1.2 0.882,1.839 0.826,2.451 -0.056,0.612 -0.455,1.282 -1.287,2.512 l -0.965,1.385 -0.566,0.74 a 1.61,1.61 0 0 0 -0.254,0.34 c -0.066,0.118 -0.119,0.225 -0.119,0.365 -0.226,0.598 -0.738,1.1 -1.053,1.711 l -0.344,0.68 3.024,-0.07 -0.014,-0.213 -0.033,-0.596 c -0.017,-0.291 -0.005,-0.424 0.002,-0.44 0.201,-0.105 0.469,-0.252 0.652,-0.4 0.107,-0.125 0.169,-0.275 0.221,-0.459 0.085,-0.71 0.497,-1.211 0.936,-1.871 l 1.547,-2.213 c 0.408,-0.55 0.669,-0.973 0.807,-1.371 0.138,-0.398 0.142,-0.769 0.045,-1.156 -0.164,-0.652 -0.133,-1.511 0.045,-1.957 0.053,-0.133 0.366,-0.534 0.685,-0.846 0.16,-0.156 0.325,-0.298 0.457,-0.396 0.015,-0.011 0.024,-0.015 0.039,-0.025 -0.046,0.195 -0.133,0.493 -0.324,1.109 -0.28,0.901 -0.372,1.85 -0.299,2.639 0.073,0.789 0.293,1.447 0.783,1.709 0.085,0.046 0.062,0.007 0.076,0.09 0.014,0.083 0.011,0.294 -0.018,0.668 -0.054,0.709 -0.011,1.009 0.211,1.525 0.155,0.359 0.418,0.721 0.697,1.006 0.14,0.143 0.283,0.266 0.424,0.358 0.141,0.092 0.276,0.16 0.438,0.16 -0.001,0 0.131,0.064 0.228,0.258 0.446,0.883 1.123,1.342 2.01,1.342 h 1.006 l -0.961,-1.037 c -0.655,-0.708 -1.277,-1.881 -1.523,-2.877 -0.237,-0.958 -0.178,-3.159 0.17,-5.064 0.289,-1.583 0.375,-2.74 0.195,-3.723 -0.18,-0.983 -0.632,-1.779 -1.371,-2.608 l -0.428,-0.529 -0.121,-0.188 c -0.026,-0.046 -0.024,-0.098 -0.024,-0.021 0,-0.164 -0.06,-0.302 -0.144,-0.512 l -0.332,-0.725 c -0.263,-0.528 -0.589,-1.103 -0.859,-1.482 a 8.64,8.64 0 0 0 -2.31,-2.209 l -1.592,-1.015 c -1.285,-0.818 -2.235,-1.804 -2.721,-2.795 -0.434,-0.885 -0.84,-2.383 -0.84,-2.996 0,-0.358 0.06,-0.827 0.141,-1.195 a 3.2,3.2 0 0 1 0.117,-0.414 c 0.052,0.039 0.263,0.68 0.316,0.67 -0.028,-0.539 -0.024,-0.795 0.294,-1.181 0.081,-0.099 0.213,-0.146 0.171,0.326 -0.078,0.892 -0.043,1.629 0.402,2.475 -0.256,-1.928 1.5,-3.343 1.085,-5.068 a 3.11,3.11 0 0 0 -0.318,-0.714 c -0.302,-0.54 -0.931,-1.642 -0.476,-1.857 0.361,-0.171 0.518,1.878 1.212,2.132 -0.122,-0.245 -0.331,-0.527 -0.077,-1.431 0.254,-0.904 0.288,-1.523 0.063,-1.955 -0.067,-0.127 -0.184,-0.264 -0.361,-0.471 l -0.631,-0.698 c -0.453,-0.477 -0.715,-0.8 -0.819,-0.992 -0.166,-0.307 0.223,-0.432 0.421,-0.194 0.331,0.398 0.594,0.627 0.861,1.525 0.246,-0.738 0.377,-1.075 0.386,-1.412 0.008,-0.579 -0.121,-1.051 -0.471,-1.422 -0.35,-0.371 -0.91,-0.495 -1.709,-0.745 -0.876,-0.275 -1.621,-1.184 -1.598,-1.17 0.985,0.629 1.353,0.748 2.23,0.631 -0.935,-0.447 -1.248,-0.803 -1.402,-1.062 -0.222,-0.379 -0.474,-0.98 -0.849,-1.05 -0.504,-0.094 -2.278,0.068 -3.154,0.16 0.241,-0.604 0.522,-0.592 0.971,-0.756 -1.135,-1.154 -2.895,0.174 -3.835,0.469 0.496,-0.355 1.565,-0.581 1.716,-1.487 z"
           stroke-width="0.014"
           id="path47" />
      </g>
      <path
         d="m 50,84.948 c -0.514,0.464 -0.631,0.962 -0.686,1.748 -0.895,-0.785 -2.342,-0.515 -2.681,-0.094 1.794,0.203 2.303,1.346 2.315,2.834 0.009,1.175 -1.03,6.799 -7.183,6.564 -6.372,0 -4.806,-5.639 -8.929,-4.863 1.068,1.149 2.757,0.427 3.04,5.865 0.086,1.651 1.951,4.063 3.275,4.826 4.194,1.877 5.031,-0.342 10.848,4.806 5.817,-5.148 6.654,-2.929 10.848,-4.806 1.324,-0.763 3.189,-3.174 3.275,-4.826 0.283,-5.438 1.972,-4.716 3.04,-5.865 C 63.04,90.361 64.606,96 58.233,96 52.08,96.234 51.041,90.611 51.05,89.436 c 0.012,-1.489 0.521,-2.631 2.315,-2.834 -0.339,-0.421 -1.787,-0.691 -2.681,0.094 -0.054,-0.786 -0.172,-1.284 -0.686,-1.748 z"
         fill="#deae26"
         id="path59" />
    </g>
    <path
       d="m 44.346,44.644 -0.175,0.217 c -0.46,-0.489 -0.07,-1.176 0.121,-1.157 0.246,0.03 0.267,0.294 0.226,0.422 -0.329,-0.019 -0.447,0.361 -0.171,0.518 z m 0.042,3.124 c 0.267,0.123 0.27,0.331 0.221,0.476 -0.35,-0.041 -0.389,-0.371 -0.221,-0.476 z"
       class="J"
       id="path51" />
  </g>
  <g
     id="g1534">
    <g
       transform="matrix(-1.02321,0.264896,0.257461,1.052761,46.92526,-33.86878)"
       id="g65">
      <use
         xlink:href="#B"
         class="B G"
         id="use61"
         x="0"
         y="0"
         width="100%"
         height="100%" />
      <use
         xlink:href="#C"
         class="B F"
         id="use63"
         x="0"
         y="0"
         width="100%"
         height="100%" />
    </g>
    <g
       transform="matrix(-0.969772,0.244015,0.244015,0.969772,47.25945,-15.955567)"
       id="g71">
      <use
         xlink:href="#B"
         class="B G"
         id="use67"
         x="0"
         y="0"
         width="100%"
         height="100%" />
      <use
         xlink:href="#C"
         class="B F"
         id="use69"
         x="0"
         y="0"
         width="100%"
         height="100%" />
    </g>
    <g
       transform="matrix(-0.969772,0.244015,0.244015,0.969772,45.445488,-19.71298)"
       id="g77">
      <use
         xlink:href="#B"
         class="B G"
         id="use73"
         x="0"
         y="0"
         width="100%"
         height="100%" />
      <use
         xlink:href="#C"
         class="B F"
         id="use75"
         x="0"
         y="0"
         width="100%"
         height="100%" />
    </g>
    <g
       transform="rotate(15.073,80.909986,-62.73709)"
       id="g83">
      <use
         xlink:href="#B"
         class="B G"
         id="use79"
         x="0"
         y="0"
         width="100%"
         height="100%" />
      <use
         xlink:href="#C"
         class="B F"
         id="use81"
         x="0"
         y="0"
         width="100%"
         height="100%" />
    </g>
    <g
       transform="rotate(15.073,191.12099,-67.77009)"
       id="g89">
      <use
         xlink:href="#B"
         class="B G"
         id="use85"
         x="0"
         y="0"
         width="100%"
         height="100%" />
      <use
         xlink:href="#C"
         class="B F"
         id="use87"
         x="0"
         y="0"
         width="100%"
         height="100%" />
    </g>
    <g
       transform="matrix(-0.965596,0.260047,0.260047,0.965596,46.121118,-49.040075)"
       id="g95">
      <use
         xlink:href="#B"
         class="B G"
         id="use91"
         x="0"
         y="0"
         width="100%"
         height="100%" />
      <use
         xlink:href="#C"
         class="B F"
         id="use93"
         x="0"
         y="0"
         width="100%"
         height="100%" />
    </g>
    <g
       transform="matrix(-0.965596,0.260047,0.260047,0.965596,46.179529,-54.971417)"
       id="g101">
      <use
         xlink:href="#B"
         class="B G"
         id="use97"
         x="0"
         y="0"
         width="100%"
         height="100%" />
      <use
         xlink:href="#C"
         class="B F"
         id="use99"
         x="0"
         y="0"
         width="100%"
         height="100%" />
    </g>
    <g
       transform="rotate(15.073,214.13699,-71.54109)"
       id="g107">
      <use
         xlink:href="#B"
         class="B G"
         id="use103"
         x="0"
         y="0"
         width="100%"
         height="100%" />
      <use
         xlink:href="#C"
         class="B F"
         id="use105"
         x="0"
         y="0"
         width="100%"
         height="100%" />
    </g>
    <g
       transform="matrix(-0.965596,0.260047,0.260047,0.965596,46.204919,-61.024152)"
       id="g113">
      <use
         xlink:href="#B"
         class="B G"
         id="use109"
         x="0"
         y="0"
         width="100%"
         height="100%" />
      <use
         xlink:href="#C"
         class="B F"
         id="use111"
         x="0"
         y="0"
         width="100%"
         height="100%" />
    </g>
    <g
       transform="matrix(0.877164,0.225316,-0.236231,0.836634,-8.952732,-68.63449)"
       id="g119">
      <use
         xlink:href="#B"
         class="B G"
         id="use115"
         x="0"
         y="0"
         width="100%"
         height="100%" />
      <use
         xlink:href="#C"
         class="B F"
         id="use117"
         x="0"
         y="0"
         width="100%"
         height="100%" />
    </g>
    <g
       transform="matrix(-0.877164,0.225316,0.236231,0.836634,43.90087,-66.045359)"
       id="g125">
      <use
         xlink:href="#B"
         class="B G"
         id="use121"
         x="0"
         y="0"
         width="100%"
         height="100%" />
      <use
         xlink:href="#C"
         class="B F"
         id="use123"
         x="0"
         y="0"
         width="100%"
         height="100%" />
    </g>
    <g
       transform="matrix(-0.877164,0.225316,0.236231,0.836634,43.541948,-71.241195)"
       id="g131">
      <use
         xlink:href="#B"
         class="B G"
         id="use127"
         x="0"
         y="0"
         width="100%"
         height="100%" />
      <use
         xlink:href="#C"
         class="B F"
         id="use129"
         x="0"
         y="0"
         width="100%"
         height="100%" />
    </g>
    <g
       transform="matrix(0.877164,0.225316,-0.236231,0.836634,-9.164455,-73.765831)"
       id="g137">
      <use
         xlink:href="#B"
         class="B G"
         id="use133"
         x="0"
         y="0"
         width="100%"
         height="100%" />
      <use
         xlink:href="#C"
         class="B F"
         id="use135"
         x="0"
         y="0"
         width="100%"
         height="100%" />
    </g>
    <g
       transform="matrix(-0.877164,0.225316,0.236231,0.836634,43.68363,-76.037996)"
       id="g143">
      <use
         xlink:href="#B"
         class="B G"
         id="use139"
         x="0"
         y="0"
         width="100%"
         height="100%" />
      <use
         xlink:href="#C"
         class="B F"
         id="use141"
         x="0"
         y="0"
         width="100%"
         height="100%" />
    </g>
    <path
       d="m 17.73,23.752 -0.842,0.201 0.617,2.578 -0.807,2.467 0.758,2.697 -0.803,2.695 0.793,2.801 -0.645,1.379 -0.08,15.986 0.762,2.85 -0.73,2.945 0.709,3.098 -0.682,2.941 0.623,3.01 -0.672,2.072 0.307,15.965 c -3.476,4.482 -3.41,10.436 -0.162,15.459 2.35,3.635 5.31,7.509 8.314,10.607 0.977,1.007 1.781,1.966 2.747,2.777 2.007,1.684 3.571,2.997 5.34,3.418 1.085,0.258 1.774,-1.032 0.555,-1.451 -1.461,-0.502 -3.137,-1.226 -5.335,-2.69 -0.995,-0.663 -1.753,-1.695 -2.686,-2.656 -2.951,-3.044 -5.887,-6.883 -8.209,-10.475 -3.121,-4.827 -3.16,-10.418 0.207,-14.621 l 0.098,-0.121 -0.309,-16.084 0.697,-2.152 -0.631,-3.049 0.686,-2.949 -0.709,-3.092 0.734,-2.961 -0.789,-2.953 0.078,-15.682 0.701,-1.498 -0.812,-2.869 0.803,-2.693 -0.754,-2.687 0.801,-2.447 z"
       class="F K M"
       id="path145" />
    <use
       xlink:href="#D"
       class="F I K"
       id="use147"
       x="0"
       y="0"
       width="100%"
       height="100%"
       transform="translate(-42.579,-6.277)" />
    <use
       xlink:href="#E"
       class="G"
       id="use149"
       x="0"
       y="0"
       width="100%"
       height="100%"
       transform="translate(-42.6495,-6.389)" />
    <use
       xlink:href="#D"
       stroke-width="0.102"
       class="F K"
       id="use151"
       x="0"
       y="0"
       width="100%"
       height="100%"
       transform="matrix(0.77667,0.598713,-0.5946,0.782042,35.48227,-49.471433)" />
    <use
       xlink:href="#E"
       class="G"
       id="use153"
       x="0"
       y="0"
       width="100%"
       height="100%"
       style="stroke:none"
       transform="matrix(0.77667,0.598713,-0.5946,0.782042,35.048048,-49.57203)" />
    <use
       xlink:href="#D"
       stroke-width="0.11"
       class="F K"
       id="use157"
       x="0"
       y="0"
       width="100%"
       height="100%"
       transform="matrix(0.711973,0.555298,-0.545069,0.725334,34.024721,-73.56732)" />
    <use
       xlink:href="#E"
       class="G"
       id="use159"
       x="0"
       y="0"
       width="100%"
       height="100%"
       transform="matrix(0.711973,0.555298,-0.545069,0.725334,33.534856,-73.624256)" />
    <g
       id="g1476">
      <use
         xlink:href="#D"
         class="F K M"
         id="use163"
         x="0"
         y="0"
         width="100%"
         height="100%"
         transform="matrix(0.482698,0.36717,-0.369542,0.479599,28.561254,-60.817704)" />
      <use
         xlink:href="#E"
         class="G"
         id="use165"
         x="0"
         y="0"
         width="100%"
         height="100%"
         transform="matrix(0.482698,0.36717,-0.369542,0.479599,28.405231,-60.87725)" />
    </g>
    <use
       xlink:href="#B"
       class="B G"
       id="use169"
       x="0"
       y="0"
       width="100%"
       height="100%"
       transform="translate(-42.579,-6.277)" />
    <use
       xlink:href="#C"
       class="B F"
       id="use171"
       x="0"
       y="0"
       width="100%"
       height="100%"
       transform="translate(-42.579,-6.277)" />
  </g>
  <g
     id="g1426">
    <path
       d="m 84.019,19.39 c -0.042,-0.068 -0.07,-0.085 -0.112,-0.166 -0.58,-0.826 -0.773,-2.472 -1.065,-2.445 -0.281,0.027 0.056,2.151 0.387,2.798 0.171,0.328 0.343,0.587 0.535,0.774 0.015,0.014 0.04,0.019 0.055,0.033 l -0.021,0.043 a 13.74,13.74 0 0 0 -0.981,2.854 l -0.814,-1.348 -0.654,0.394 1.344,2.227 0.09,-0.055 c 0.083,0.511 0.157,1.033 0.342,1.473 0.269,0.639 0.521,1.233 0.521,1.912 0,0.679 -0.24,1.272 -0.502,1.899 -0.107,0.254 -0.121,0.574 -0.214,0.847 l -1.201,-1.828 -0.639,0.42 1.584,2.41 c -0.005,0.088 -0.063,0.147 -0.061,0.238 v 0.002 c 0.021,0.792 0.334,1.449 0.606,2.041 0.272,0.592 0.498,1.114 0.486,1.654 -0.012,0.553 -0.243,1.156 -0.506,1.809 -0.151,0.373 -0.23,0.808 -0.349,1.219 l -0.846,-1.396 -0.654,0.398 1.295,2.135 0.006,-0.004 c 0.018,0.716 0.253,1.375 0.528,1.953 0.306,0.644 0.581,1.227 0.576,1.771 -0.005,0.552 -0.282,1.198 -0.58,1.875 -0.143,0.324 -0.165,0.686 -0.277,1.027 l -1.024,-2.234 -0.695,0.318 1.449,3.17 0.013,-0.006 c 0.076,0.655 0.338,1.194 0.588,1.678 0.27,0.522 0.499,1.01 0.504,1.693 0.005,0.668 -0.266,1.314 -0.566,1.996 -0.129,0.293 -0.155,0.644 -0.266,0.955 l -0.986,-1.873 -0.676,0.358 1.365,2.594 c -0.003,0.068 -0.054,0.118 -0.053,0.188 0.019,0.806 0.35,1.433 0.644,1.994 0.294,0.561 0.551,1.057 0.572,1.672 0.021,0.602 -0.233,1.222 -0.525,1.887 -0.122,0.279 -0.15,0.614 -0.258,0.912 l -1.235,-1.961 -0.649,0.408 1.606,2.545 c -0.009,0.098 -0.079,0.172 -0.078,0.273 0.009,0.786 0.305,1.452 0.574,2.061 0.269,0.609 0.511,1.163 0.529,1.728 0.017,0.544 -0.23,1.105 -0.523,1.719 -0.169,0.353 -0.243,0.781 -0.371,1.178 l -1.008,-1.549 -0.641,0.418 1.434,2.205 c 0.048,0.673 0.279,1.292 0.521,1.849 0.269,0.62 0.487,1.183 0.439,1.731 -0.047,0.541 -0.399,1.194 -0.785,1.897 -0.198,0.361 -0.271,0.795 -0.43,1.192 l -1.18,-1.7 -0.629,0.436 1.488,2.147 c -0.012,0.088 -0.084,0.154 -0.088,0.244 -0.035,0.826 0.305,1.516 0.615,2.131 0.31,0.615 0.591,1.162 0.607,1.717 0.017,0.582 -0.158,0.887 -0.379,1.326 -0.043,0.086 -0.043,0.266 -0.086,0.362 l -1.232,-1.719 -0.621,0.447 1.619,2.254 0.002,-0.002 c -0.028,0.195 -0.131,0.278 -0.121,0.514 0.039,0.931 0.605,1.681 1.103,2.381 0.498,0.7 0.927,1.347 0.944,1.98 0.023,0.887 -0.163,1.237 -0.406,1.686 -0.14,0.258 -0.229,0.751 -0.353,1.139 l -1.092,-1.604 -0.633,0.431 1.521,2.234 a 4.47,4.47 0 0 0 0.533,2.045 c 0.306,0.577 0.568,1.04 0.549,1.799 -0.019,0.759 -0.256,1.017 -0.666,1.461 -0.346,0.375 -0.801,0.998 -1.194,1.816 l -1.164,-1.719 -0.633,0.429 1.533,2.262 0.043,-0.029 a 8.05,8.05 0 0 0 -0.01,1.983 c 0.103,0.819 0.09,1.485 -0.448,2.265 -0.696,1.011 -1.361,1.174 -2.352,1.384 -0.786,0.167 -1.797,0.381 -2.583,0.917 l -0.162,-2.469 -0.764,0.051 0.152,2.989 c -0.52,0.666 -0.82,1.678 -1.05,2.605 -0.249,1.008 -0.546,2.04 -1.147,2.778 -0.901,1.107 -2.276,2.115 -3.73,2.904 -1.454,0.789 -3.093,1.02 -4.048,1.145 -0.836,0.572 -0.495,1.689 0.415,1.578 1.124,-0.146 2.716,-0.944 4.232,-1.767 1.516,-0.823 2.878,-2.088 3.878,-3.316 0.237,-0.27 0.71,-1.007 0.677,-1.042 l 2.432,-1.251 -0.357,-0.678 -1.818,1.01 0.349,-1.105 c 0.252,-1.017 0.519,-1.802 0.926,-2.236 0.728,-0.775 1.521,-0.91 2.542,-1.127 1.021,-0.217 2.176,-0.53 3.014,-1.746 0.205,-0.297 0.308,-0.711 0.401,-1.008 l 0.023,0.027 1.84,-1.568 -0.498,-0.582 -1.152,0.984 -0.016,-0.836 c -0.109,-0.869 -0.262,-1.608 -0.029,-2.226 0.378,-1 0.829,-1.436 1.258,-1.901 0.429,-0.465 0.843,-1.012 0.867,-1.961 0.003,-0.112 -0.067,-0.152 -0.074,-0.256 l 1.41,-2.318 -0.654,-0.396 -1.047,1.721 c -0.115,-0.29 -0.143,-0.684 -0.271,-0.926 -0.301,-0.568 -0.551,-1.051 -0.504,-1.869 0.049,-0.843 0.27,-1.187 0.523,-1.654 a 3.75,3.75 0 0 0 0.5,-2.072 c -0.005,-0.204 -0.108,-0.372 -0.158,-0.561 l 1.355,-2.102 -0.644,-0.414 -1.034,1.606 a 11.84,11.84 0 0 0 -0.605,-0.932 c -0.499,-0.702 -0.935,-1.349 -0.961,-1.971 -0.029,-0.7 0.144,-1.053 0.358,-1.478 0.214,-0.425 0.481,-0.933 0.459,-1.691 C 83.936,82.084 83.8,81.932 83.749,81.73 l 1.065,-1.932 -0.67,-0.369 -0.727,1.318 c -0.073,-0.149 -0.091,-0.339 -0.164,-0.482 -0.306,-0.605 -0.559,-1.157 -0.533,-1.752 0.026,-0.617 0.365,-1.29 0.746,-1.984 0.381,-0.694 0.808,-1.406 0.877,-2.197 0.016,-0.178 -0.096,-0.308 -0.113,-0.476 l 0.027,0.018 1.301,-2.146 -0.656,-0.395 -0.914,1.512 c -0.074,-0.195 -0.067,-0.43 -0.147,-0.613 -0.273,-0.629 -0.522,-1.204 -0.515,-1.744 0.007,-0.54 0.272,-1.104 0.568,-1.723 0.296,-0.619 0.625,-1.294 0.6,-2.074 -0.01,-0.317 -0.164,-0.557 -0.248,-0.84 l 1.346,-2.225 -0.654,-0.394 -0.984,1.629 c -0.025,-0.055 -0.031,-0.127 -0.055,-0.182 -0.268,-0.605 -0.503,-1.167 -0.51,-1.762 -0.007,-0.578 0.257,-1.19 0.551,-1.859 0.294,-0.669 0.619,-1.395 0.59,-2.221 -0.007,-0.192 -0.12,-0.3 -0.157,-0.473 l 1.141,-1.869 0.021,0.01 0.067,-0.168 -0.682,-0.34 -0.861,1.412 c -0.083,-0.175 -0.105,-0.413 -0.19,-0.574 -0.294,-0.561 -0.545,-1.052 -0.559,-1.656 -0.014,-0.592 0.249,-1.21 0.551,-1.894 0.302,-0.684 0.64,-1.438 0.633,-2.31 -0.001,-0.135 -0.078,-0.196 -0.092,-0.32 l 1.586,-2.114 -0.613,-0.459 -1.24,1.653 c -0.097,-0.25 -0.121,-0.588 -0.23,-0.799 -0.279,-0.539 -0.52,-0.976 -0.551,-1.502 -0.029,-0.497 0.219,-1.118 0.516,-1.791 0.297,-0.673 0.637,-1.393 0.644,-2.176 0.002,-0.173 -0.113,-0.298 -0.142,-0.461 l 0.031,0.014 1.225,-2.631 -0.693,-0.322 -0.883,1.897 c -0.085,-0.191 -0.099,-0.422 -0.186,-0.604 -0.302,-0.636 -0.555,-1.221 -0.516,-1.793 0.042,-0.613 0.292,-1.242 0.557,-1.897 0.265,-0.655 0.545,-1.337 0.561,-2.08 10e-4,-0.063 -0.044,-0.104 -0.047,-0.166 l 1.084,-2.086 -0.68,-0.353 -0.705,1.362 c -0.092,-0.239 -0.107,-0.522 -0.209,-0.744 -0.272,-0.593 -0.521,-1.146 -0.537,-1.745 -0.016,-0.599 0.211,-1.145 0.475,-1.773 0.194,-0.463 0.314,-1.038 0.412,-1.615 l 0.065,0.041 1.131,-1.828 -0.65,-0.403 -0.576,0.932 c -0.11,-0.538 -0.216,-1.09 -0.4,-1.529 -0.267,-0.634 -0.485,-1.187 -0.439,-1.785 0.064,-0.834 0.701,-2.323 1.093,-3.127 l 0.102,-0.199 c 1.387,-1.076 1.387,-3.642 1.243,-3.666 -0.436,-0.072 -0.582,2.074 -1.162,2.533 -0.229,-0.934 0.337,-5.394 0.033,-5.394 -0.304,0 -0.633,4.453 -0.683,5.353 z"
       stroke="#fed700"
       class="M"
       id="path173"
       style="fill:#fff100" />
    <g
       id="g1290">
      <use
         xlink:href="#F"
         class="D I"
         id="use175"
         x="0"
         y="0"
         width="100%"
         height="100%"
         style="fill:#fff100"
         transform="translate(-42.579,-6.277)" />
      <use
         xlink:href="#G"
         class="E"
         id="use179"
         x="0"
         y="0"
         width="100%"
         height="100%"
         transform="translate(-42.579,-6.277)" />
    </g>
    <g
       id="g1284">
      <g
         transform="matrix(-0.545833,-0.837894,-0.837894,0.545833,241.72986,151.63205)"
         id="g185">
        <use
           xlink:href="#F"
           x="2.822"
           y="2.9679999"
           class="C D I"
           id="use181"
           width="100%"
           height="100%" />
        <use
           xlink:href="#G"
           x="2.822"
           y="2.9679999"
           class="E"
           id="use183"
           width="100%"
           height="100%" />
      </g>
    </g>
    <g
       transform="matrix(-0.603032,-0.643583,-0.622863,0.623092,230.27612,110.09518)"
       id="g191">
      <use
         xlink:href="#F"
         x="2.822"
         y="2.9679999"
         class="C D I"
         id="use187"
         width="100%"
         height="100%" />
      <use
         xlink:href="#G"
         x="2.822"
         y="2.9679999"
         class="E"
         id="use189"
         width="100%"
         height="100%" />
    </g>
    <g
       transform="matrix(0.699803,-0.561823,0.495642,0.793245,-57.854721,76.623101)"
       id="g197">
      <use
         xlink:href="#F"
         class="C D I"
         id="use193"
         x="0"
         y="0"
         width="100%"
         height="100%" />
      <use
         xlink:href="#G"
         class="E"
         id="use195"
         x="0"
         y="0"
         width="100%"
         height="100%" />
    </g>
    <g
       id="g1296">
      <use
         xlink:href="#F"
         class="C D I"
         id="use199"
         x="0"
         y="0"
         width="100%"
         height="100%"
         transform="matrix(0.705463,-0.543411,0.499651,0.767249,-57.857332,69.347347)" />
      <use
         xlink:href="#G"
         class="E"
         id="use201"
         x="0"
         y="0"
         width="100%"
         height="100%"
         transform="matrix(0.705463,-0.543411,0.499651,0.767249,-57.857332,69.347347)" />
    </g>
    <g
       transform="matrix(-0.755912,-0.473828,-0.450521,0.766793,230.74566,63.483589)"
       id="g209">
      <use
         xlink:href="#F"
         x="2.822"
         y="2.9679999"
         class="C D I"
         id="use205"
         width="100%"
         height="100%" />
      <use
         xlink:href="#G"
         x="2.822"
         y="2.9679999"
         class="E"
         id="use207"
         width="100%"
         height="100%" />
    </g>
    <g
       id="g1304">
      <path
         d="m 78.589,76.403 -0.111,0.092 c -0.786,0.654 -1.196,1.483 -1.147,2.281 0.047,0.778 0.554,1.506 1.503,1.992 -0.051,0.945 0.251,1.717 0.791,2.146 0.555,0.44 1.343,0.511 2.155,0.087 0.508,-0.265 0.896,-0.966 0.874,-1.71 -0.022,-0.718 -0.49,-1.457 -1.586,-1.85 0.005,-0.025 0.01,-0.04 0.015,-0.078 0.011,-0.081 0.021,-0.187 0.025,-0.31 0.007,-0.248 -0.013,-0.565 -0.112,-0.887 -0.197,-0.645 -0.738,-1.301 -1.943,-1.355 -0.054,-0.002 -0.14,-0.032 -0.217,-0.083 a 0.54,0.54 0 0 1 -0.18,-0.194 z"
         stroke-width="0.087"
         class="C D"
         id="path211" />
      <path
         d="M 78.939,80.709 C 77,79.765 77.021,77.857 78.55,76.584 c -1.347,3.321 0.658,2.747 1.127,3.603 0.403,0.736 -0.67,1.852 2.048,2.713 -1.561,0.815 -2.925,-0.289 -2.786,-2.191 z"
         class="E"
         id="path213" />
    </g>
    <g
       id="g1300">
      <path
         d="m 89.231,80.247 0.11,0.102 c 0.776,0.723 1.162,1.606 1.083,2.433 -0.077,0.807 -0.618,1.536 -1.602,1.99 0.017,0.986 -0.318,1.771 -0.884,2.188 -0.58,0.428 -1.385,0.459 -2.195,-0.025 -0.508,-0.303 -0.876,-1.053 -0.826,-1.825 0.048,-0.745 0.552,-1.488 1.682,-1.837 -0.004,-0.027 -0.009,-0.042 -0.013,-0.082 -0.008,-0.084 -0.015,-0.195 -0.014,-0.324 a 2.95,2.95 0 0 1 0.147,-0.916 c 0.224,-0.659 0.799,-1.312 2.026,-1.304 a 0.47,0.47 0 0 0 0.224,-0.075 c 0.08,-0.05 0.152,-0.121 0.19,-0.192 z"
         stroke-width="0.089"
         class="C D"
         id="path215" />
      <path
         d="m 88.717,84.705 c 2.007,-0.876 2.056,-2.862 0.547,-4.268 1.249,3.525 -0.771,2.82 -1.278,3.685 -0.437,0.743 0.613,1.962 -2.182,2.71 1.558,0.931 2.986,-0.142 2.914,-2.127 z"
         class="E"
         id="path217" />
    </g>
    <g
       id="g1308">
      <path
         d="m 87.372,73.532 0.102,0.088 c 0.719,0.628 1.094,1.423 1.049,2.189 -0.043,0.747 -0.506,1.446 -1.374,1.912 0.046,0.907 -0.229,1.647 -0.724,2.059 -0.507,0.423 -1.228,0.49 -1.97,0.084 -0.465,-0.255 -0.82,-0.927 -0.799,-1.642 0.02,-0.689 0.448,-1.398 1.451,-1.775 l -0.014,-0.075 c -0.01,-0.077 -0.019,-0.179 -0.022,-0.298 -0.006,-0.238 0.012,-0.542 0.102,-0.852 0.18,-0.619 0.675,-1.248 1.777,-1.3 0.05,-0.002 0.128,-0.03 0.198,-0.08 a 0.51,0.51 0 0 0 0.164,-0.187 z"
         class="C D L"
         id="path219" />
      <use
         xlink:href="#H"
         class="E"
         id="use221"
         x="0"
         y="0"
         width="100%"
         height="100%"
         transform="translate(-42.579,-6.277)" />
    </g>
    <g
       id="g1320">
      <use
         xlink:href="#I"
         class="C D L"
         id="use223"
         x="0"
         y="0"
         width="100%"
         height="100%"
         transform="translate(-42.579,-6.277)" />
      <use
         xlink:href="#J"
         class="E"
         id="use225"
         x="0"
         y="0"
         width="100%"
         height="100%"
         transform="translate(-42.579,-6.277)" />
    </g>
    <g
       id="g1316">
      <use
         xlink:href="#K"
         class="C D L"
         id="use227"
         x="0"
         y="0"
         width="100%"
         height="100%"
         transform="translate(-42.579,-6.277)" />
      <use
         xlink:href="#H"
         x="0.685"
         y="-8.1689997"
         class="E"
         id="use229"
         width="100%"
         height="100%"
         transform="translate(-42.579,-6.277)" />
    </g>
    <path
       d="m 79.221,54.642 -0.101,0.082 c -0.711,0.585 -1.081,1.325 -1.037,2.038 0.043,0.695 0.5,1.346 1.358,1.78 -0.046,0.845 0.227,1.534 0.715,1.917 0.502,0.393 1.214,0.456 1.948,0.078 0.46,-0.237 0.81,-0.863 0.79,-1.528 -0.019,-0.641 -0.443,-1.302 -1.434,-1.653 0.004,-0.023 0.009,-0.035 0.014,-0.069 0.01,-0.072 0.019,-0.167 0.022,-0.277 a 2.48,2.48 0 0 0 -0.101,-0.793 c -0.178,-0.576 -0.667,-1.162 -1.757,-1.21 -0.049,-0.002 -0.126,-0.028 -0.196,-0.074 -0.07,-0.046 -0.131,-0.111 -0.162,-0.174 z"
       class="C D P"
       id="path231" />
    <path
       d="m 79.538,58.489 c -1.753,-0.843 -1.734,-2.548 -0.351,-3.686 -1.218,2.967 0.595,2.454 1.019,3.219 0.364,0.658 -0.605,1.655 1.851,2.424 -1.411,0.728 -2.645,-0.258 -2.519,-1.957 z"
       class="E"
       id="path233" />
    <g
       id="g1324">
      <use
         xlink:href="#K"
         x="0.034000002"
         y="-7.9850001"
         class="C D L"
         id="use235"
         width="100%"
         height="100%"
         transform="translate(-42.579,-6.277)" />
      <use
         xlink:href="#H"
         x="0.71799999"
         y="-16.153"
         class="E"
         id="use237"
         width="100%"
         height="100%"
         transform="translate(-42.579,-6.277)" />
    </g>
    <g
       id="g1328">
      <path
         d="m 79.227,47.14 -0.101,0.081 c -0.714,0.576 -1.087,1.305 -1.042,2.007 0.043,0.685 0.503,1.325 1.365,1.753 -0.046,0.832 0.228,1.51 0.719,1.888 0.504,0.387 1.221,0.45 1.958,0.077 0.462,-0.234 0.815,-0.85 0.794,-1.505 -0.02,-0.631 -0.445,-1.282 -1.441,-1.627 0.004,-0.022 0.009,-0.035 0.014,-0.068 0.01,-0.071 0.019,-0.164 0.022,-0.273 0.006,-0.218 -0.012,-0.497 -0.102,-0.781 C 81.234,48.125 80.742,47.548 79.647,47.5 A 0.44,0.44 0 0 1 79.45,47.427 0.48,0.48 0 0 1 79.287,47.256 Z"
         stroke-width="0.077"
         class="C D"
         id="path239" />
      <path
         d="m 79.545,50.928 c -1.762,-0.83 -1.743,-2.509 -0.353,-3.629 -1.224,2.922 0.598,2.417 1.024,3.17 0.366,0.648 -0.608,1.63 1.861,2.387 -1.418,0.717 -2.658,-0.254 -2.531,-1.928 z"
         class="E"
         id="path241" />
    </g>
    <path
       d="m 87.881,50.541 0.1,0.083 c 0.707,0.587 1.075,1.331 1.031,2.048 -0.043,0.699 -0.498,1.352 -1.351,1.788 0.046,0.849 -0.225,1.541 -0.711,1.926 -0.499,0.395 -1.208,0.459 -1.937,0.078 -0.457,-0.238 -0.806,-0.867 -0.786,-1.536 0.019,-0.644 0.441,-1.308 1.426,-1.661 -0.004,-0.023 -0.009,-0.036 -0.014,-0.07 -0.01,-0.072 -0.019,-0.168 -0.022,-0.279 -0.006,-0.222 0.012,-0.507 0.101,-0.797 0.177,-0.579 0.664,-1.168 1.747,-1.216 0.049,-0.002 0.126,-0.028 0.195,-0.075 0.069,-0.047 0.13,-0.111 0.161,-0.175 z"
       class="C D P"
       id="path243" />
    <path
       d="m 87.566,54.407 c 1.743,-0.847 1.724,-2.56 0.349,-3.703 1.211,2.981 -0.592,2.466 -1.013,3.234 -0.362,0.661 0.602,1.663 -1.841,2.436 1.403,0.732 2.63,-0.259 2.504,-1.967 z"
       class="E"
       id="path245" />
    <g
       id="g1336">
      <path
         d="m 79.175,39.458 -0.102,0.084 c -0.717,0.596 -1.091,1.351 -1.047,2.078 0.043,0.709 0.505,1.373 1.371,1.815 -0.046,0.861 0.229,1.564 0.722,1.955 0.506,0.401 1.225,0.466 1.965,0.08 0.464,-0.242 0.818,-0.88 0.797,-1.559 -0.02,-0.654 -0.447,-1.327 -1.447,-1.685 0.004,-0.023 0.009,-0.036 0.014,-0.071 0.01,-0.073 0.019,-0.17 0.022,-0.283 0.006,-0.226 -0.012,-0.515 -0.102,-0.808 -0.18,-0.587 -0.673,-1.185 -1.773,-1.234 -0.05,-0.002 -0.128,-0.029 -0.198,-0.076 a 0.49,0.49 0 0 1 -0.164,-0.177 z"
         class="C D Q"
         id="path247" />
      <path
         d="m 79.494,43.381 c -1.769,-0.86 -1.749,-2.599 -0.354,-3.759 -1.229,3.026 0.601,2.503 1.028,3.283 0.367,0.671 -0.611,1.688 1.868,2.472 -1.424,0.742 -2.668,-0.263 -2.541,-1.996 z"
         class="E"
         id="path249" />
    </g>
    <g
       id="g1332">
      <path
         d="m 87.984,42.988 0.102,0.085 c 0.717,0.604 1.091,1.368 1.047,2.104 -0.043,0.718 -0.505,1.389 -1.371,1.837 0.046,0.872 -0.229,1.583 -0.722,1.979 -0.506,0.406 -1.226,0.471 -1.966,0.081 -0.464,-0.245 -0.818,-0.891 -0.798,-1.578 0.02,-0.662 0.447,-1.344 1.448,-1.706 -0.004,-0.023 -0.009,-0.036 -0.014,-0.072 -0.01,-0.074 -0.019,-0.172 -0.022,-0.286 -0.006,-0.228 0.012,-0.521 0.102,-0.818 0.18,-0.594 0.674,-1.2 1.773,-1.249 a 0.43,0.43 0 0 0 0.198,-0.077 c 0.07,-0.048 0.132,-0.114 0.164,-0.179 z"
         class="C D Q"
         id="path251" />
      <path
         d="m 87.664,46.96 c 1.77,-0.87 1.75,-2.63 0.355,-3.805 1.23,3.063 -0.601,2.534 -1.028,3.323 -0.368,0.679 0.611,1.708 -1.869,2.502 1.424,0.752 2.67,-0.266 2.543,-2.021 z"
         class="E"
         id="path253" />
    </g>
    <g
       id="g1344">
      <use
         xlink:href="#L"
         class="C D N"
         id="use255"
         x="0"
         y="0"
         width="100%"
         height="100%"
         transform="translate(-42.579,-6.277)" />
      <use
         xlink:href="#M"
         class="E"
         id="use257"
         x="0"
         y="0"
         width="100%"
         height="100%"
         transform="translate(-42.579,-6.277)" />
    </g>
    <g
       id="g1340">
      <path
         d="m 87.833,35.131 0.099,0.081 c 0.695,0.575 1.057,1.302 1.014,2.003 -0.042,0.684 -0.489,1.323 -1.328,1.749 0.045,0.83 -0.222,1.507 -0.699,1.884 -0.49,0.387 -1.188,0.449 -1.905,0.077 -0.45,-0.233 -0.793,-0.848 -0.773,-1.502 0.019,-0.63 0.433,-1.279 1.402,-1.624 -0.004,-0.022 -0.009,-0.035 -0.013,-0.068 -0.01,-0.071 -0.019,-0.164 -0.022,-0.273 -0.006,-0.217 0.012,-0.496 0.099,-0.779 0.174,-0.566 0.653,-1.142 1.718,-1.19 0.048,-0.002 0.124,-0.028 0.192,-0.073 0.068,-0.045 0.128,-0.109 0.159,-0.171 z"
         stroke-width="0.076"
         class="C D"
         id="path259" />
      <path
         d="m 87.523,38.912 c 1.714,-0.829 1.696,-2.504 0.343,-3.622 1.191,2.916 -0.582,2.412 -0.996,3.164 -0.356,0.646 0.592,1.627 -1.81,2.382 1.38,0.716 2.586,-0.254 2.463,-1.924 z"
         class="E"
         id="path261" />
    </g>
    <g
       id="g1348">
      <path
         d="m 87.6,28.279 0.09,0.075 c 0.637,0.531 0.969,1.203 0.929,1.851 -0.038,0.632 -0.448,1.222 -1.217,1.616 0.041,0.767 -0.203,1.393 -0.641,1.741 -0.449,0.357 -1.088,0.414 -1.745,0.071 -0.412,-0.215 -0.726,-0.784 -0.708,-1.388 0.017,-0.582 0.397,-1.182 1.285,-1.501 -0.004,-0.021 -0.008,-0.032 -0.012,-0.063 -0.009,-0.065 -0.017,-0.151 -0.02,-0.252 -0.006,-0.201 0.011,-0.458 0.091,-0.72 0.16,-0.523 0.598,-1.055 1.574,-1.099 0.044,-0.002 0.113,-0.026 0.176,-0.068 0.063,-0.042 0.117,-0.101 0.145,-0.158 z"
         class="C D N"
         id="path263" />
      <path
         d="m 87.316,31.773 c 1.571,-0.765 1.554,-2.314 0.315,-3.347 1.091,2.694 -0.533,2.229 -0.913,2.923 -0.326,0.597 0.542,1.503 -1.659,2.201 1.264,0.661 2.37,-0.234 2.257,-1.777 z"
         class="E"
         id="path265" />
    </g>
    <g
       id="g1352">
      <use
         xlink:href="#L"
         x="0.0070000002"
         y="-7.8000002"
         class="C D N"
         id="use267"
         width="100%"
         height="100%"
         transform="translate(-42.579,-6.277)" />
      <use
         xlink:href="#M"
         x="0.0070000002"
         y="-7.7989998"
         class="E"
         id="use269"
         width="100%"
         height="100%"
         transform="translate(-42.579,-6.277)" />
    </g>
    <g
       transform="matrix(-0.55128,-0.301958,-0.302149,0.550467,185.05674,0.20427614)"
       id="g275">
      <use
         xlink:href="#F"
         class="C D I"
         id="use271"
         x="0"
         y="0"
         width="100%"
         height="100%" />
      <use
         xlink:href="#G"
         class="E"
         id="use273"
         x="0"
         y="0"
         width="100%"
         height="100%" />
    </g>
    <g
       transform="matrix(0.55128,-0.301958,0.302149,0.550467,-18.143178,-4.14818)"
       id="g281">
      <use
         xlink:href="#F"
         class="C D I"
         id="use277"
         x="0"
         y="0"
         width="100%"
         height="100%" />
      <use
         xlink:href="#G"
         class="E"
         id="use279"
         x="0"
         y="0"
         width="100%"
         height="100%" />
    </g>
    <g
       id="g1312">
      <use
         xlink:href="#I"
         x="-0.861"
         y="7.4640002"
         class="C D L"
         id="use283"
         width="100%"
         height="100%"
         transform="translate(-42.579,-6.277)" />
      <use
         xlink:href="#J"
         x="-0.861"
         y="7.4629998"
         class="E"
         id="use285"
         width="100%"
         height="100%"
         transform="translate(-42.579,-6.277)" />
    </g>
  </g>
  <g
     id="g1540">
    <path
       d="m 33.262,132.052 6.415,-3.193 -2.389,-4.619 -6.223,3.096 z m 33.476,0 -6.415,-3.193 2.389,-4.619 6.223,3.096 z"
       stroke="#ffffff"
       class="F O"
       id="path289" />
    <path
       d="m 32.459,122.178 2.351,5.728 4.867,0.953 -2.389,-4.619 z m 35.082,0 -2.351,5.728 -4.867,0.953 2.389,-4.619 z"
       stroke="#ffffff"
       stroke-linejoin="round"
       class="G O"
       id="path291" />
    <path
       d="m 50,117.868 c -4.256,0.174 -9.414,0.222 -17.542,4.31 l 2.268,5.528 c 7.113,-3.516 11.097,-3.442 15.273,-3.59 4.177,0.148 8.16,0.074 15.273,3.59 l 2.268,-5.528 c -8.128,-4.088 -13.285,-4.136 -17.541,-4.31 z"
       stroke="#ffffff"
       class="F O"
       id="path293" />
    <path
       d="m 34.962225,121.8199 3.873766,-1.4317 0.376829,1.01852 -1.299305,0.4801 1.14764,3.10585 -1.274139,0.47052 -1.14764,-3.10585 -1.299305,0.48009 z m 9.123887,-2.57707 1.337901,-0.21941 0.424319,2.58655 q 0.0635,0.38513 -0.0017,0.74808 -0.0621,0.36 -0.277192,0.6594 -0.213043,0.29644 -0.47661,0.44601 -0.366584,0.20883 -0.91418,0.29858 -0.316919,0.0516 -0.70027,0.0692 -0.380335,0.0166 -0.652875,-0.0721 -0.27349,-0.0916 -0.523003,-0.29989 -0.247515,-0.20822 -0.366388,-0.45326 -0.192359,-0.39431 -0.244973,-0.71325 l -0.424318,-2.58654 1.337902,-0.21941 0.435268,2.64874 q 0.058,0.35503 0.287181,0.52393 0.231227,0.16594 0.580242,0.10883 0.346016,-0.0572 0.509883,-0.28442 0.165934,-0.23122 0.106032,-0.59229 z m 4.030679,-0.36089 2.543262,0.006 q 0.636062,0.002 0.97377,0.31752 0.340708,0.3158 0.339843,0.78085 -5.96e-4,0.39005 -0.244331,0.66797 -0.162157,0.18528 -0.475023,0.29301 0.473122,0.11501 0.694422,0.3948 0.224351,0.27683 0.223264,0.69587 -7.84e-4,0.34204 -0.160413,0.61438 -0.159628,0.27234 -0.436346,0.43068 -0.170683,0.0981 -0.51648,0.14229 -0.459067,0.0592 -0.60908,0.0587 l -2.345239,-0.006 z m 1.365984,1.72735 0.591067,9.9e-4 q 0.318039,3.8e-4 0.440865,-0.10655 0.125894,-0.11089 0.126395,-0.31791 2.47e-4,-0.19203 -0.124942,-0.30016 -0.123189,-0.1081 -0.431213,-0.10931 l -0.600066,-0.001 z m -0.0042,1.72717 0.69307,0.002 q 0.351034,9.3e-4 0.495128,-0.12165 0.144144,-0.12558 0.144696,-0.3356 2.98e-4,-0.19502 -0.142736,-0.31246 -0.140984,-0.1204 -0.498018,-0.12144 l -0.69007,-0.002 z m 7.134848,0.71977 -1.5315,-0.21993 -0.313676,0.68779 -1.37486,-0.19728 2.259954,-4.11737 1.466644,0.21083 1.011576,4.58677 -1.406788,-0.20182 z m -0.14742,-0.98164 -0.256411,-1.63357 -0.702405,1.49634 z m 4.617968,-1.79216 1.192878,0.43124 0.729911,2.84975 0.826801,-2.28734 1.203808,0.43542 -1.495131,4.1343 -1.203808,-0.43542 -0.727233,-2.8307 -0.820514,2.27045 -1.201826,-0.43439 z"
       class="J"
       id="path295" />
  </g>
</svg>
